<svg id="Layer_1" enable-background="new 0 0 100 100" viewBox="0 0 100 100" xmlns="http://www.w3.org/2000/svg" xmlns:xlink="http://www.w3.org/1999/xlink"><linearGradient id="lg1"><stop offset="0" stop-color="#97e0ff"/><stop offset="1" stop-color="#1075ff"/></linearGradient><linearGradient id="SVGID_1_" gradientUnits="userSpaceOnUse" x1="-10.898" x2="81.119" xlink:href="#lg1" y1="5.047" y2="105.887"/><linearGradient id="SVGID_00000065753605847095844200000011891165625207336100_" gradientUnits="userSpaceOnUse" x1="10.796" x2="102.812" xlink:href="#lg1" y1="-14.749" y2="86.092"/><g><path d="m20.4237976 44.2900391-4.7600107 5.7099609 4.7600107 5.7099609c1.4199219 1.7099609 2.1999512 3.8601074 2.1999512 6.0800781v19.8798828c0 5.2399902 4.25 9.5 9.5 9.5h1.5800781c1.75 0 3.1699219 1.4100342 3.1699219 3.1600342s-1.4199219 3.170044-3.1699219 3.170044h-1.5800781c-8.7399902 0-15.8300781-7.0900879-15.8300781-15.8300781v-19.8798828c0-.7399902-.2600098-1.460083-.7399912-2.0200195l-6.4499512-7.7399902c-.9699707-1.1800537-.9699707-2.880127 0-4.0600586l6.4499512-7.7399902c.4799814-.5600586.7399912-1.2800293.7399912-2.0200195v-19.880005c0-8.7399903 7.0900878-15.8299561 15.8300781-15.8299561h1.5800781c1.75 0 3.1699219 1.4199219 3.1699219 3.1699219s-1.4199219 3.1600342-3.1699219 3.1600342h-1.5800781c-5.25 0-9.5 4.2600098-9.5 9.5v19.8800049c0 2.2199706-.7800293 4.3699951-2.1999512 6.0800781z" fill="url(#SVGID_1_)"/><path d="m90.8962708 52.0300293-6.4499512 7.7399902c-.4799805.5599365-.7399902 1.2800293-.7399902 2.0200195v19.8798828c-.0000001 8.7399903-7.0900879 15.8300782-15.8300782 15.8300782h-1.5800781c-1.75 0-3.1699219-1.4200439-3.1699219-3.1700439s1.4199219-3.1600342 3.1699219-3.1600342h1.5800781c5.25 0 9.5-4.2600098 9.5-9.5v-19.8798828c0-2.2199707.7800293-4.3701172 2.1999512-6.0800781l4.7600098-5.709961-4.7600098-5.7099609c-1.4199219-1.710083-2.1999512-3.8601074-2.1999512-6.0800781v-19.8800049c0-5.2399902-4.25-9.5-9.5-9.5h-1.5800781c-1.75 0-3.1699219-1.4100342-3.1699219-3.1600342s1.4199219-3.1699219 3.1699219-3.1699219h1.5800781c8.7399902 0 15.8300781 7.0899658 15.8300781 15.8299561v19.8800049c0 .7399902.2600098 1.4599609.7399902 2.0200195l6.4499512 7.7399902c.9699708 1.1799316.9699708 2.8800049.0000001 4.0600586z" fill="url(#SVGID_00000065753605847095844200000011891165625207336100_)"/></g></svg>